<svg width="106" height="131" viewBox="0 0 106 131" fill="none" xmlns="http://www.w3.org/2000/svg">
<path d="M53.4202 98L31.8148 92.0021L27 38H79.905L75.0853 91.9938L53.4202 98Z" fill="#264DE4"/>
<path d="M70.9589 88.5558L75.0775 42.4155H53.4524V93.4092L70.9589 88.5558Z" fill="#2965F1"/>
<path d="M38.0378 62.4441L38.6313 69.0672H53.4527V62.4441H38.0378Z" fill="#EBEBEB"/>
<path d="M36.8449 49.0387L37.4469 55.6618H53.4526V49.0387H36.8449Z" fill="#EBEBEB"/>
<path d="M53.4521 79.6453L53.4231 79.6529L46.0469 77.6612L45.5753 72.379H38.9267L39.8545 82.7784L53.4216 86.5444L53.4521 86.5361V79.6453Z" fill="#EBEBEB"/>
<path d="M68.8249 62.444L70.0204 49.0387H53.4295V55.6618H62.7621L62.1594 62.444H53.4295V69.0672H61.5852L60.8162 77.6569L53.4293 79.6507V86.5411L67.0072 82.7782L67.1067 81.6592L68.6633 64.2225L68.8249 62.444Z" fill="white"/>
<path d="M47.6875 11.3906C47.5469 12.5938 47.1016 13.5234 46.3516 14.1797C45.6068 14.8307 44.6146 15.1562 43.375 15.1562C42.0312 15.1562 40.9531 14.6745 40.1406 13.7109C39.3333 12.7474 38.9297 11.4583 38.9297 9.84375V8.75C38.9297 7.69271 39.1172 6.76302 39.4922 5.96094C39.8724 5.15885 40.4089 4.54427 41.1016 4.11719C41.7943 3.6849 42.5964 3.46875 43.5078 3.46875C44.7161 3.46875 45.6849 3.80729 46.4141 4.48438C47.1432 5.15625 47.5677 6.08854 47.6875 7.28125H46.1797C46.0495 6.375 45.7656 5.71875 45.3281 5.3125C44.8958 4.90625 44.2891 4.70312 43.5078 4.70312C42.5495 4.70312 41.7969 5.05729 41.25 5.76562C40.7083 6.47396 40.4375 7.48177 40.4375 8.78906V9.89062C40.4375 11.125 40.6953 12.1068 41.2109 12.8359C41.7266 13.5651 42.4479 13.9297 43.375 13.9297C44.2083 13.9297 44.8464 13.7422 45.2891 13.3672C45.737 12.987 46.0339 12.3281 46.1797 11.3906H47.6875ZM53.0938 9.92969C51.8073 9.5599 50.8698 9.10677 50.2812 8.57031C49.6979 8.02865 49.4062 7.36198 49.4062 6.57031C49.4062 5.67448 49.763 4.9349 50.4766 4.35156C51.1953 3.76302 52.1276 3.46875 53.2734 3.46875C54.0547 3.46875 54.75 3.61979 55.3594 3.92188C55.974 4.22396 56.4479 4.64062 56.7812 5.17188C57.1198 5.70312 57.2891 6.28385 57.2891 6.91406H55.7812C55.7812 6.22656 55.5625 5.6875 55.125 5.29688C54.6875 4.90104 54.0703 4.70312 53.2734 4.70312C52.5339 4.70312 51.9557 4.86719 51.5391 5.19531C51.1276 5.51823 50.9219 5.96875 50.9219 6.54688C50.9219 7.01042 51.1172 7.40365 51.5078 7.72656C51.9036 8.04427 52.5729 8.33594 53.5156 8.60156C54.4635 8.86719 55.2031 9.16146 55.7344 9.48438C56.2708 9.80208 56.6667 10.1745 56.9219 10.6016C57.1823 11.0286 57.3125 11.5312 57.3125 12.1094C57.3125 13.0312 56.9531 13.7708 56.2344 14.3281C55.5156 14.8802 54.5547 15.1562 53.3516 15.1562C52.5703 15.1562 51.8411 15.0078 51.1641 14.7109C50.487 14.4089 49.9635 13.9974 49.5938 13.4766C49.2292 12.9557 49.0469 12.3646 49.0469 11.7031H50.5547C50.5547 12.3906 50.8073 12.9349 51.3125 13.3359C51.8229 13.7318 52.5026 13.9297 53.3516 13.9297C54.1432 13.9297 54.75 13.7682 55.1719 13.4453C55.5938 13.1224 55.8047 12.6823 55.8047 12.125C55.8047 11.5677 55.6094 11.138 55.2188 10.8359C54.8281 10.5286 54.1198 10.2266 53.0938 9.92969ZM62.5938 9.92969C61.3073 9.5599 60.3698 9.10677 59.7812 8.57031C59.1979 8.02865 58.9062 7.36198 58.9062 6.57031C58.9062 5.67448 59.263 4.9349 59.9766 4.35156C60.6953 3.76302 61.6276 3.46875 62.7734 3.46875C63.5547 3.46875 64.25 3.61979 64.8594 3.92188C65.474 4.22396 65.9479 4.64062 66.2812 5.17188C66.6198 5.70312 66.7891 6.28385 66.7891 6.91406H65.2812C65.2812 6.22656 65.0625 5.6875 64.625 5.29688C64.1875 4.90104 63.5703 4.70312 62.7734 4.70312C62.0339 4.70312 61.4557 4.86719 61.0391 5.19531C60.6276 5.51823 60.4219 5.96875 60.4219 6.54688C60.4219 7.01042 60.6172 7.40365 61.0078 7.72656C61.4036 8.04427 62.0729 8.33594 63.0156 8.60156C63.9635 8.86719 64.7031 9.16146 65.2344 9.48438C65.7708 9.80208 66.1667 10.1745 66.4219 10.6016C66.6823 11.0286 66.8125 11.5312 66.8125 12.1094C66.8125 13.0312 66.4531 13.7708 65.7344 14.3281C65.0156 14.8802 64.0547 15.1562 62.8516 15.1562C62.0703 15.1562 61.3411 15.0078 60.6641 14.7109C59.987 14.4089 59.4635 13.9974 59.0938 13.4766C58.7292 12.9557 58.5469 12.3646 58.5469 11.7031H60.0547C60.0547 12.3906 60.3073 12.9349 60.8125 13.3359C61.3229 13.7318 62.0026 13.9297 62.8516 13.9297C63.6432 13.9297 64.25 13.7682 64.6719 13.4453C65.0938 13.1224 65.3047 12.6823 65.3047 12.125C65.3047 11.5677 65.1094 11.138 64.7188 10.8359C64.3281 10.5286 63.6198 10.2266 62.5938 9.92969Z" fill="white"/>
<rect y="123" width="106" height="8" rx="4" fill="#151B24"/>
<rect y="123" width="90" height="8" rx="4" fill="#2965F1"/>
</svg>
