<svg width="106" height="131" viewBox="0 0 106 131" fill="none" xmlns="http://www.w3.org/2000/svg">
<path d="M79.9051 38L75.0853 91.9938L53.4202 98L31.8148 92.0021L27 38H79.9051Z" fill="#E44D26"/>
<path d="M53.4524 93.4092L70.9589 88.5558L75.0775 42.4155H53.4524V93.4092Z" fill="#F16529"/>
<path d="M44.0831 55.6618H53.4526V49.0387H36.8449L37.0033 50.8155L38.6313 69.0672H53.4526V62.444H44.6885L44.0831 55.6618Z" fill="#EBEBEB"/>
<path d="M45.5757 72.379H38.927L39.8548 82.7784L53.4219 86.5444L53.4524 86.5361V79.6453L53.4234 79.6529L46.0472 77.6612L45.5757 72.379Z" fill="#EBEBEB"/>
<path d="M53.4298 69.0672H61.5855L60.8165 77.6569L53.4296 79.6507V86.5411L67.0074 82.7782L67.107 81.6592L68.6636 64.2226L68.8251 62.4441H53.4298V69.0672Z" fill="white"/>
<path d="M53.4296 55.6457V55.6618H69.4276L69.5603 54.1732L69.8623 50.8155L70.0205 49.0387H53.4296V55.6459V55.6457Z" fill="white"/>
<path d="M41.0625 15H39.5547V9.74219H33.8203V15H32.3203V3.625H33.8203V8.51562H39.5547V3.625H41.0625V15ZM51.3516 4.85938H47.6953V15H46.2031V4.85938H42.5547V3.625H51.3516V4.85938ZM54.9766 3.625L58.6953 12.9062L62.4141 3.625H64.3594V15H62.8594V10.5703L63 5.78906L59.2656 15H58.1172L54.3906 5.8125L54.5391 10.5703V15H53.0391V3.625H54.9766ZM68.5156 13.7734H73.9062V15H67.0078V3.625H68.5156V13.7734Z" fill="white"/>
<rect y="123" width="106" height="8" rx="4" fill="#151B24"/>
<rect y="123" width="80" height="8" rx="4" fill="#E44D26"/>
</svg>
