<svg width="106" height="131" viewBox="0 0 106 131" fill="none" xmlns="http://www.w3.org/2000/svg">
<path d="M17 37H77V97H17V37Z" fill="#F7DF1E"/>
<path d="M32.7761 87.1408L37.3675 84.3621C38.2535 85.9326 39.0592 87.2615 40.9921 87.2615C42.8449 87.2615 44.0132 86.5369 44.0132 83.7178V64.5464H49.6516V83.7975C49.6516 89.6374 46.2283 92.2957 41.2338 92.2957C36.7232 92.2957 34.105 89.9597 32.7759 87.1404" fill="black"/>
<path d="M52.7143 86.5369L57.3053 83.8788C58.5139 85.8525 60.0847 87.3023 62.8635 87.3023C65.2 87.3023 66.6897 86.1342 66.6897 84.5231C66.6897 82.59 65.1592 81.9051 62.5815 80.7778L61.1722 80.1731C57.1042 78.4418 54.4058 76.2668 54.4058 71.6754C54.4058 67.4463 57.6278 64.2241 62.6624 64.2241C66.2469 64.2241 68.8246 65.4729 70.6771 68.7351L66.2868 71.5547C65.32 69.8229 64.2732 69.1383 62.6622 69.1383C61.0107 69.1383 59.9636 70.1854 59.9636 71.5547C59.9636 73.2462 61.0107 73.9312 63.4272 74.9784L64.8367 75.5824C69.6296 77.6367 72.328 79.7308 72.328 84.4427C72.328 89.5179 68.3408 92.2966 62.9842 92.2966C57.7485 92.2966 54.3653 89.7996 52.7141 86.5371" fill="black"/>
<path d="M6.08594 3.625H7.59375V11.6797C7.59375 12.7682 7.26562 13.6198 6.60938 14.2344C5.95833 14.849 5.08854 15.1562 4 15.1562C2.86979 15.1562 1.98958 14.8672 1.35938 14.2891C0.729167 13.7109 0.414062 12.901 0.414062 11.8594H1.91406C1.91406 12.5104 2.09115 13.0182 2.44531 13.3828C2.80469 13.7474 3.32292 13.9297 4 13.9297C4.61979 13.9297 5.11979 13.7344 5.5 13.3438C5.88542 12.9531 6.08073 12.4062 6.08594 11.7031V3.625ZM16.2578 12.0312H11.4922L10.4219 15H8.875L13.2188 3.625H14.5312L18.8828 15H17.3438L16.2578 12.0312ZM11.9453 10.7969H15.8125L13.875 5.47656L11.9453 10.7969ZM23.4922 13.0078L26.7422 3.625H28.3828L24.1641 15H22.8359L18.625 3.625H20.2578L23.4922 13.0078ZM35.6016 12.0312H30.8359L29.7656 15H28.2188L32.5625 3.625H33.875L38.2266 15H36.6875L35.6016 12.0312ZM31.2891 10.7969H35.1562L33.2188 5.47656L31.2891 10.7969ZM43.1094 9.92969C41.8229 9.5599 40.8854 9.10677 40.2969 8.57031C39.7135 8.02865 39.4219 7.36198 39.4219 6.57031C39.4219 5.67448 39.7786 4.9349 40.4922 4.35156C41.2109 3.76302 42.1432 3.46875 43.2891 3.46875C44.0703 3.46875 44.7656 3.61979 45.375 3.92188C45.9896 4.22396 46.4635 4.64062 46.7969 5.17188C47.1354 5.70312 47.3047 6.28385 47.3047 6.91406H45.7969C45.7969 6.22656 45.5781 5.6875 45.1406 5.29688C44.7031 4.90104 44.0859 4.70312 43.2891 4.70312C42.5495 4.70312 41.9714 4.86719 41.5547 5.19531C41.1432 5.51823 40.9375 5.96875 40.9375 6.54688C40.9375 7.01042 41.1328 7.40365 41.5234 7.72656C41.9193 8.04427 42.5885 8.33594 43.5312 8.60156C44.4792 8.86719 45.2188 9.16146 45.75 9.48438C46.2865 9.80208 46.6823 10.1745 46.9375 10.6016C47.1979 11.0286 47.3281 11.5312 47.3281 12.1094C47.3281 13.0312 46.9688 13.7708 46.25 14.3281C45.5312 14.8802 44.5703 15.1562 43.3672 15.1562C42.5859 15.1562 41.8568 15.0078 41.1797 14.7109C40.5026 14.4089 39.9792 13.9974 39.6094 13.4766C39.2448 12.9557 39.0625 12.3646 39.0625 11.7031H40.5703C40.5703 12.3906 40.8229 12.9349 41.3281 13.3359C41.8385 13.7318 42.5182 13.9297 43.3672 13.9297C44.1589 13.9297 44.7656 13.7682 45.1875 13.4453C45.6094 13.1224 45.8203 12.6823 45.8203 12.125C45.8203 11.5677 45.625 11.138 45.2344 10.8359C44.8438 10.5286 44.1354 10.2266 43.1094 9.92969ZM57.625 11.3906C57.4844 12.5938 57.0391 13.5234 56.2891 14.1797C55.5443 14.8307 54.5521 15.1562 53.3125 15.1562C51.9688 15.1562 50.8906 14.6745 50.0781 13.7109C49.2708 12.7474 48.8672 11.4583 48.8672 9.84375V8.75C48.8672 7.69271 49.0547 6.76302 49.4297 5.96094C49.8099 5.15885 50.3464 4.54427 51.0391 4.11719C51.7318 3.6849 52.5339 3.46875 53.4453 3.46875C54.6536 3.46875 55.6224 3.80729 56.3516 4.48438C57.0807 5.15625 57.5052 6.08854 57.625 7.28125H56.1172C55.987 6.375 55.7031 5.71875 55.2656 5.3125C54.8333 4.90625 54.2266 4.70312 53.4453 4.70312C52.487 4.70312 51.7344 5.05729 51.1875 5.76562C50.6458 6.47396 50.375 7.48177 50.375 8.78906V9.89062C50.375 11.125 50.6328 12.1068 51.1484 12.8359C51.6641 13.5651 52.3854 13.9297 53.3125 13.9297C54.1458 13.9297 54.7839 13.7422 55.2266 13.3672C55.6745 12.987 55.9714 12.3281 56.1172 11.3906H57.625ZM63.8516 10.3984H61.1797V15H59.6719V3.625H63.4375C64.7188 3.625 65.7031 3.91667 66.3906 4.5C67.0833 5.08333 67.4297 5.93229 67.4297 7.04688C67.4297 7.75521 67.237 8.3724 66.8516 8.89844C66.4714 9.42448 65.9401 9.81771 65.2578 10.0781L67.9297 14.9062V15H66.3203L63.8516 10.3984ZM61.1797 9.17188H63.4844C64.2292 9.17188 64.8203 8.97917 65.2578 8.59375C65.7005 8.20833 65.9219 7.69271 65.9219 7.04688C65.9219 6.34375 65.7109 5.80469 65.2891 5.42969C64.8724 5.05469 64.2682 4.86458 63.4766 4.85938H61.1797V9.17188ZM71.1484 15H69.6484V3.625H71.1484V15ZM75.3984 10.5469V15H73.8984V3.625H78.0938C79.3385 3.625 80.3125 3.94271 81.0156 4.57812C81.724 5.21354 82.0781 6.05469 82.0781 7.10156C82.0781 8.20573 81.7318 9.05729 81.0391 9.65625C80.3516 10.25 79.3646 10.5469 78.0781 10.5469H75.3984ZM75.3984 9.32031H78.0938C78.8958 9.32031 79.5104 9.13281 79.9375 8.75781C80.3646 8.3776 80.5781 7.83073 80.5781 7.11719C80.5781 6.4401 80.3646 5.89844 79.9375 5.49219C79.5104 5.08594 78.9245 4.875 78.1797 4.85938H75.3984V9.32031ZM91.8516 4.85938H88.1953V15H86.7031V4.85938H83.0547V3.625H91.8516V4.85938Z" fill="white"/>
<rect y="123" width="106" height="8" rx="4" fill="#151B24"/>
<path d="M0 127C0 124.791 1.79086 123 4 123H55C57.2091 123 59 124.791 59 127C59 129.209 57.2091 131 55 131H4C1.79086 131 0 129.209 0 127Z" fill="#F7DF1E"/>
</svg>
