<svg width="106" height="131" viewBox="0 0 106 131" fill="none" xmlns="http://www.w3.org/2000/svg">
<path d="M81.8888 72.8458C81.5399 71.7892 80.6261 71.0533 79.4443 70.8767C78.887 70.7935 78.2488 70.829 77.4936 70.9847C76.1772 71.2563 75.2006 71.3597 74.4879 71.3797C77.1781 66.8376 79.3656 61.6581 80.625 56.7824C82.6613 48.8985 81.5731 45.3069 80.3015 43.6824C76.9363 39.3824 72.0265 37.0724 66.1034 37.0017C62.9436 36.9631 60.1697 37.5869 58.7227 38.0356C57.3754 37.7978 55.9268 37.6651 54.4068 37.6406C51.5574 37.5951 49.0399 38.2163 46.8888 39.4928C45.6979 39.0901 43.7865 38.5224 41.5793 38.1601C36.3879 37.3078 32.2038 37.9719 29.1434 40.134C25.4374 42.7517 23.7195 47.2999 24.0372 53.6522C24.1381 55.669 25.2663 61.8053 27.0427 67.6249C28.0636 70.9699 29.1522 73.7476 30.2784 75.8817C31.8754 78.9078 33.5843 80.6899 35.5027 81.3299C36.5779 81.6881 38.5315 81.939 40.5863 80.2276C40.8468 80.5431 41.1943 80.8565 41.6554 81.1476C42.2411 81.5169 42.9572 81.8188 43.6724 81.9976C46.2499 82.6419 48.6643 82.4808 50.724 81.5776C50.7368 81.944 50.7465 82.294 50.7547 82.5963C50.7684 83.0865 50.782 83.5672 50.7999 84.0167C50.922 87.0563 51.1288 89.4197 51.7415 91.0733C51.7752 91.1642 51.8204 91.3028 51.8681 91.4499C52.1738 92.3858 52.6849 93.9526 53.9854 95.1797C55.332 96.4508 56.9609 96.8406 58.4527 96.8406C59.2009 96.8406 59.9147 96.7424 60.5409 96.6083C62.7727 96.1299 65.3074 95.4013 67.1411 92.7903C68.8747 90.3222 69.7174 86.6047 69.8699 80.7472C69.8897 80.5815 69.9079 80.4233 69.9254 80.2726L69.9618 79.9631L70.3702 79.999L70.4754 80.006C72.7486 80.1097 75.5281 79.6276 77.2352 78.8347C78.584 78.2088 82.9065 75.9267 81.8888 72.8458Z" fill="black"/>
<path d="M78.002 73.4448C71.2429 74.8391 70.7781 72.5507 70.7781 72.5507C77.9145 61.9614 80.8979 48.5198 78.3236 45.23C71.2999 36.2562 59.142 40.5002 58.939 40.6102L58.8738 40.6221C57.5384 40.3448 56.044 40.1798 54.3643 40.1523C51.3061 40.1023 48.9861 40.9541 47.2256 42.2891C47.2256 42.2891 25.537 33.3541 26.5459 53.5264C26.7604 57.8177 32.6968 85.9975 39.7772 77.4859C42.3652 74.3734 44.8659 71.7418 44.8659 71.7418C46.1077 72.5668 47.5945 72.9877 49.1531 72.8366L49.2743 72.7339C49.2365 73.1202 49.2538 73.4982 49.3227 73.9457C47.4986 75.9837 48.0347 76.3414 44.3884 77.0921C40.6986 77.8525 42.8661 79.2062 44.2813 79.5602C45.997 79.9891 49.9661 80.5968 52.6479 76.8425L52.5411 77.2709C53.2556 77.8434 53.7574 80.9943 53.6734 83.8509C53.5893 86.7073 53.5331 88.6684 54.0961 90.2002C54.6595 91.7321 55.2206 95.1787 60.0143 94.1516C64.0195 93.2932 66.0952 91.0689 66.384 87.3584C66.5888 84.7207 67.0527 85.1107 67.0818 82.7523L67.4538 81.6359C67.8827 78.0602 67.522 76.9066 69.9895 77.4432L70.5895 77.4959C72.4054 77.5784 74.7827 77.2037 76.1779 76.5552C79.182 75.1612 80.9638 72.8332 78.0015 73.4448H78.002Z" fill="#336791"/>
<path d="M48.4952 55.4452C47.8861 55.3604 47.3345 55.4388 47.0554 55.6502C46.8986 55.7691 46.85 55.9068 46.8368 56.0016C46.8018 56.2527 46.9777 56.5304 47.0859 56.6736C47.3918 57.0791 47.8386 57.3577 48.2809 57.4191C48.345 57.4282 48.4089 57.4322 48.4723 57.4322C49.2098 57.4322 49.8804 56.8579 49.9395 56.4341C50.0134 55.9032 49.2427 55.5493 48.4952 55.4454" fill="white"/>
<path d="M68.6734 55.4622C68.6152 55.0461 67.8748 54.9274 67.172 55.0251C66.4702 55.1229 65.7898 55.4397 65.8466 55.8567C65.892 56.1811 66.4777 56.7347 67.1709 56.7347C67.2295 56.7347 67.2886 56.7308 67.3482 56.7224C67.8109 56.6583 68.1505 56.3645 68.3118 56.1951C68.5573 55.937 68.6995 55.6492 68.6734 55.4622Z" fill="white"/>
<path d="M80.2509 73.2863C79.9932 72.507 79.1637 72.2563 77.7855 72.5408C73.6934 73.3854 72.228 72.8004 71.7469 72.4461C74.9275 67.6006 77.5441 61.7433 78.9557 56.2786C79.6244 53.6899 79.9937 51.2858 80.0239 49.3263C80.0573 47.1756 79.691 45.5951 78.9355 44.6297C75.8896 40.7376 71.4191 38.6499 66.0078 38.5926C62.2875 38.5508 59.1444 39.5029 58.535 39.7706C57.2519 39.4515 55.853 39.2556 54.33 39.2306C51.5373 39.1854 49.1232 39.854 47.1246 41.217C46.2564 40.8938 44.0128 40.1236 41.2689 39.6815C36.5253 38.9179 32.7557 39.4965 30.0657 41.4022C26.856 43.6763 25.3741 47.7413 25.6612 53.484C25.7578 55.4161 26.8587 61.3597 28.596 67.0517C30.8828 74.5436 33.3687 78.7847 35.9841 79.6572C36.2903 79.7592 36.6432 79.8306 37.0325 79.8306C37.9866 79.8306 39.1564 79.4006 40.3735 77.9374C41.8579 76.1566 43.3935 74.4191 44.9782 72.727C46.0064 73.2788 47.136 73.587 48.2912 73.6179C48.2935 73.6481 48.2964 73.6783 48.2991 73.7083C48.1003 73.9455 47.9055 74.186 47.715 74.4299C46.9146 75.4461 46.748 75.6576 44.1714 76.1881C43.4385 76.3395 41.4919 76.7406 41.4632 78.1051C41.4323 79.5961 43.7644 80.2222 44.03 80.2886C44.9559 80.5204 45.848 80.6347 46.6987 80.6347C48.7675 80.6347 50.5882 79.9547 52.0432 78.639C51.9985 83.954 52.22 89.1913 52.8582 90.787C53.381 92.0933 54.6578 95.2858 58.691 95.2856C59.2828 95.2856 59.9341 95.2167 60.6507 95.0631C64.86 94.1608 66.688 92.3004 67.395 88.1988C67.7734 86.0067 68.4228 80.7724 68.7282 77.9647C69.3728 78.1658 70.2025 78.2579 71.0996 78.2576C72.9705 78.2576 75.1294 77.8601 76.4832 77.2317C78.0041 76.5254 80.7487 74.7922 80.2509 73.2863ZM70.2269 54.3136C70.213 55.1424 70.0989 55.8949 69.978 56.6804C69.8478 57.5251 69.7132 58.3986 69.6794 59.4588C69.646 60.4906 69.7748 61.5633 69.8994 62.6008C70.1512 64.6963 70.4096 66.8536 69.4094 68.9822C69.2432 68.6878 69.0952 68.3835 68.9662 68.0711C68.8419 67.7697 68.5719 67.2856 68.198 66.6156C66.7437 64.0074 63.338 57.8997 65.0814 55.4074C65.6007 54.6656 66.9187 53.9029 70.2269 54.3136ZM66.2169 40.2711C71.0655 40.3781 74.901 42.192 77.6164 45.662C79.6991 48.3236 77.4057 60.4342 70.7664 70.8822C70.6996 70.7973 70.6325 70.7127 70.565 70.6283L70.4809 70.5233C72.1966 67.6899 71.8612 64.8865 71.5625 62.4011C71.4398 61.3811 71.3239 60.4176 71.3535 59.5126C71.3839 58.5536 71.5107 57.7308 71.6334 56.9354C71.7841 55.9551 71.9375 54.9408 71.8953 53.7451C71.9269 53.6197 71.9396 53.4715 71.923 53.2956C71.815 52.149 70.506 48.7174 67.8378 45.6115C66.3782 43.9126 64.2498 42.0115 61.3437 40.7292C62.5937 40.4701 64.303 40.2286 66.2169 40.2711ZM39.0855 76.8665C37.7446 78.4788 36.8187 78.1697 36.5141 78.0683C34.53 77.4065 32.2278 73.2129 30.198 66.5629C28.4416 60.8088 27.4153 55.0226 27.3339 53.4001C27.0775 48.2688 28.3214 44.6926 31.0312 42.7708C35.4412 39.6436 42.6916 41.5154 45.605 42.4647C45.5632 42.5061 45.5196 42.5447 45.4782 42.5867C40.6973 47.4149 40.8107 55.664 40.8225 56.1683C40.8221 56.3629 40.8385 56.6383 40.8607 57.0172C40.943 58.4047 41.0962 60.987 40.6871 63.9113C40.3071 66.6288 41.1448 69.2886 42.985 71.2088C43.1739 71.4055 43.3724 71.5927 43.5798 71.7697C42.7607 72.647 40.9805 74.587 39.0855 76.8665ZM44.1944 70.0499C42.7112 68.5022 42.0375 66.3495 42.3459 64.1431C42.7778 61.054 42.6185 58.3636 42.5328 56.9181C42.5207 56.7158 42.51 56.5386 42.5039 56.3988C43.2023 55.7795 46.4389 54.0454 48.7471 54.5742C49.8003 54.8154 50.4421 55.5326 50.7089 56.7663C52.0898 63.1533 50.8916 65.8154 49.9289 67.9547C49.7305 68.3954 49.543 68.812 49.383 69.2429L49.2589 69.5761C48.9448 70.4183 48.6525 71.2015 48.4714 71.9451C46.8946 71.9406 45.3607 71.267 44.1944 70.0497V70.0499ZM44.4364 78.6636C43.976 78.5485 43.5619 78.3488 43.3189 78.1831C43.5219 78.0876 43.883 77.9576 44.5094 77.8286C47.5405 77.2047 48.0087 76.7642 49.031 75.4663C49.2653 75.1686 49.531 74.8313 49.8989 74.4204L49.8994 74.4199C50.4473 73.8063 50.698 73.9104 51.1525 74.099C51.521 74.2513 51.8798 74.7131 52.0253 75.2213C52.0941 75.4613 52.1714 75.9167 51.9184 76.2713C49.783 79.2613 46.6712 79.2229 44.4364 78.6636ZM60.2998 93.4254C56.5916 94.2199 55.2787 92.3279 54.4135 90.1649C53.855 88.7686 53.5805 82.4717 53.7753 75.5179C53.7778 75.4254 53.7646 75.3361 53.7391 75.252C53.7164 75.0859 53.6817 74.9217 53.6355 74.7606C53.346 73.7488 52.6403 72.9024 51.7937 72.5515C51.4573 72.4122 50.84 72.1565 50.0982 72.3463C50.2564 71.6945 50.5307 70.9583 50.8282 70.1613L50.953 69.8261C51.0935 69.4481 51.2698 69.0565 51.4562 68.642C52.4637 66.4038 53.8434 63.3381 52.3459 56.4124C51.785 53.8183 49.9119 52.5515 47.0723 52.8458C45.37 53.022 43.8125 53.7088 43.0357 54.1026C42.8687 54.1872 42.716 54.269 42.5732 54.3486C42.79 51.7349 43.6091 46.8504 46.6732 43.7599C48.6025 41.8145 51.1719 40.8536 54.3023 40.9054C60.4705 41.0063 64.4259 44.1717 66.6582 46.8097C68.5819 49.0826 69.6234 51.3724 70.0391 52.6074C66.913 52.2895 64.7869 52.9065 63.7091 54.4474C61.3644 57.7992 64.9919 64.3047 66.7353 67.4313C67.055 68.0042 67.3309 68.4995 67.4178 68.7099C67.9855 70.0858 68.7205 71.0045 69.2571 71.6749C69.4216 71.8804 69.5812 72.0797 69.7025 72.2538C68.7557 72.5267 67.055 73.1574 67.21 76.3099C67.085 77.8917 66.1962 85.2976 65.7446 87.9142C65.1484 91.3711 63.8764 92.6586 60.2998 93.4256V93.4254ZM75.778 75.7126C74.8098 76.162 73.1896 76.499 71.6505 76.5715C69.9505 76.6511 69.085 76.3811 68.8814 76.2149C68.7859 74.2504 69.5171 74.0451 70.2909 73.8279C70.4125 73.7938 70.5312 73.7604 70.6457 73.7204C70.7169 73.7783 70.7948 73.8358 70.8803 73.8922C72.2466 74.794 74.6837 74.8913 78.1244 74.1811L78.1621 74.1735C77.698 74.6074 76.9039 75.1897 75.778 75.7126Z" fill="white"/>
<path d="M6.82031 10.5469V15H5.32031V3.625H9.51562C10.7604 3.625 11.7344 3.94271 12.4375 4.57812C13.1458 5.21354 13.5 6.05469 13.5 7.10156C13.5 8.20573 13.1536 9.05729 12.4609 9.65625C11.7734 10.25 10.7865 10.5469 9.5 10.5469H6.82031ZM6.82031 9.32031H9.51562C10.3177 9.32031 10.9323 9.13281 11.3594 8.75781C11.7865 8.3776 12 7.83073 12 7.11719C12 6.4401 11.7865 5.89844 11.3594 5.49219C10.9323 5.08594 10.3464 4.875 9.60156 4.85938H6.82031V9.32031ZM24.1641 9.67969C24.1641 10.7943 23.9766 11.7682 23.6016 12.6016C23.2266 13.4297 22.6953 14.0625 22.0078 14.5C21.3203 14.9375 20.5182 15.1562 19.6016 15.1562C18.7057 15.1562 17.9115 14.9375 17.2188 14.5C16.526 14.0573 15.987 13.4297 15.6016 12.6172C15.2214 11.7995 15.026 10.8542 15.0156 9.78125V8.96094C15.0156 7.86719 15.2057 6.90104 15.5859 6.0625C15.9661 5.22396 16.5026 4.58333 17.1953 4.14062C17.8932 3.69271 18.6901 3.46875 19.5859 3.46875C20.4974 3.46875 21.2995 3.6901 21.9922 4.13281C22.6901 4.57031 23.2266 5.20833 23.6016 6.04688C23.9766 6.88021 24.1641 7.85156 24.1641 8.96094V9.67969ZM22.6719 8.94531C22.6719 7.59635 22.401 6.5625 21.8594 5.84375C21.3177 5.11979 20.5599 4.75781 19.5859 4.75781C18.638 4.75781 17.8906 5.11979 17.3438 5.84375C16.8021 6.5625 16.5234 7.5625 16.5078 8.84375V9.67969C16.5078 10.987 16.7812 12.0156 17.3281 12.7656C17.8802 13.5104 18.638 13.8828 19.6016 13.8828C20.5703 13.8828 21.3203 13.5312 21.8516 12.8281C22.3828 12.1198 22.6562 11.1068 22.6719 9.78906V8.94531ZM29.7656 9.92969C28.4792 9.5599 27.5417 9.10677 26.9531 8.57031C26.3698 8.02865 26.0781 7.36198 26.0781 6.57031C26.0781 5.67448 26.4349 4.9349 27.1484 4.35156C27.8672 3.76302 28.7995 3.46875 29.9453 3.46875C30.7266 3.46875 31.4219 3.61979 32.0312 3.92188C32.6458 4.22396 33.1198 4.64062 33.4531 5.17188C33.7917 5.70312 33.9609 6.28385 33.9609 6.91406H32.4531C32.4531 6.22656 32.2344 5.6875 31.7969 5.29688C31.3594 4.90104 30.7422 4.70312 29.9453 4.70312C29.2057 4.70312 28.6276 4.86719 28.2109 5.19531C27.7995 5.51823 27.5938 5.96875 27.5938 6.54688C27.5938 7.01042 27.7891 7.40365 28.1797 7.72656C28.5755 8.04427 29.2448 8.33594 30.1875 8.60156C31.1354 8.86719 31.875 9.16146 32.4062 9.48438C32.9427 9.80208 33.3385 10.1745 33.5938 10.6016C33.8542 11.0286 33.9844 11.5312 33.9844 12.1094C33.9844 13.0312 33.625 13.7708 32.9062 14.3281C32.1875 14.8802 31.2266 15.1562 30.0234 15.1562C29.2422 15.1562 28.513 15.0078 27.8359 14.7109C27.1589 14.4089 26.6354 13.9974 26.2656 13.4766C25.901 12.9557 25.7188 12.3646 25.7188 11.7031H27.2266C27.2266 12.3906 27.4792 12.9349 27.9844 13.3359C28.4948 13.7318 29.1745 13.9297 30.0234 13.9297C30.8151 13.9297 31.4219 13.7682 31.8438 13.4453C32.2656 13.1224 32.4766 12.6823 32.4766 12.125C32.4766 11.5677 32.2812 11.138 31.8906 10.8359C31.5 10.5286 30.7917 10.2266 29.7656 9.92969ZM43.7734 4.85938H40.1172V15H38.625V4.85938H34.9766V3.625H43.7734V4.85938ZM53.6406 13.5078C53.2552 14.0599 52.7161 14.474 52.0234 14.75C51.3359 15.0208 50.5339 15.1562 49.6172 15.1562C48.6901 15.1562 47.8672 14.9401 47.1484 14.5078C46.4297 14.0703 45.8724 13.4505 45.4766 12.6484C45.0859 11.8464 44.8854 10.9167 44.875 9.85938V8.86719C44.875 7.15365 45.2734 5.82552 46.0703 4.88281C46.8724 3.9401 47.9974 3.46875 49.4453 3.46875C50.6328 3.46875 51.5885 3.77344 52.3125 4.38281C53.0365 4.98698 53.4792 5.84635 53.6406 6.96094H52.1406C51.8594 5.45573 50.9635 4.70312 49.4531 4.70312C48.4479 4.70312 47.6849 5.05729 47.1641 5.76562C46.6484 6.46875 46.388 7.48958 46.3828 8.82812V9.75781C46.3828 11.0339 46.6745 12.0495 47.2578 12.8047C47.8411 13.5547 48.6302 13.9297 49.625 13.9297C50.1875 13.9297 50.6797 13.8672 51.1016 13.7422C51.5234 13.6172 51.8724 13.4062 52.1484 13.1094V10.5547H49.5156V9.33594H53.6406V13.5078ZM60.3203 10.3984H57.6484V15H56.1406V3.625H59.9062C61.1875 3.625 62.1719 3.91667 62.8594 4.5C63.5521 5.08333 63.8984 5.93229 63.8984 7.04688C63.8984 7.75521 63.7057 8.3724 63.3203 8.89844C62.9401 9.42448 62.4089 9.81771 61.7266 10.0781L64.3984 14.9062V15H62.7891L60.3203 10.3984ZM57.6484 9.17188H59.9531C60.6979 9.17188 61.2891 8.97917 61.7266 8.59375C62.1693 8.20833 62.3906 7.69271 62.3906 7.04688C62.3906 6.34375 62.1797 5.80469 61.7578 5.42969C61.3411 5.05469 60.737 4.86458 59.9453 4.85938H57.6484V9.17188ZM72.4375 9.74219H67.5078V13.7734H73.2344V15H66.0078V3.625H73.1562V4.85938H67.5078V8.51562H72.4375V9.74219ZM78.4531 9.92969C77.1667 9.5599 76.2292 9.10677 75.6406 8.57031C75.0573 8.02865 74.7656 7.36198 74.7656 6.57031C74.7656 5.67448 75.1224 4.9349 75.8359 4.35156C76.5547 3.76302 77.487 3.46875 78.6328 3.46875C79.4141 3.46875 80.1094 3.61979 80.7188 3.92188C81.3333 4.22396 81.8073 4.64062 82.1406 5.17188C82.4792 5.70312 82.6484 6.28385 82.6484 6.91406H81.1406C81.1406 6.22656 80.9219 5.6875 80.4844 5.29688C80.0469 4.90104 79.4297 4.70312 78.6328 4.70312C77.8932 4.70312 77.3151 4.86719 76.8984 5.19531C76.487 5.51823 76.2812 5.96875 76.2812 6.54688C76.2812 7.01042 76.4766 7.40365 76.8672 7.72656C77.263 8.04427 77.9323 8.33594 78.875 8.60156C79.8229 8.86719 80.5625 9.16146 81.0938 9.48438C81.6302 9.80208 82.026 10.1745 82.2812 10.6016C82.5417 11.0286 82.6719 11.5312 82.6719 12.1094C82.6719 13.0312 82.3125 13.7708 81.5938 14.3281C80.875 14.8802 79.9141 15.1562 78.7109 15.1562C77.9297 15.1562 77.2005 15.0078 76.5234 14.7109C75.8464 14.4089 75.3229 13.9974 74.9531 13.4766C74.5885 12.9557 74.4062 12.3646 74.4062 11.7031H75.9141C75.9141 12.3906 76.1667 12.9349 76.6719 13.3359C77.1823 13.7318 77.862 13.9297 78.7109 13.9297C79.5026 13.9297 80.1094 13.7682 80.5312 13.4453C80.9531 13.1224 81.1641 12.6823 81.1641 12.125C81.1641 11.5677 80.9688 11.138 80.5781 10.8359C80.1875 10.5286 79.4792 10.2266 78.4531 9.92969ZM93.2891 9.67969C93.2891 10.7786 93.1146 11.7266 92.7656 12.5234C92.4167 13.3151 91.9271 13.9349 91.2969 14.3828L93.3281 15.9766L92.3047 16.9219L89.9062 15.0156C89.5312 15.1094 89.1354 15.1562 88.7188 15.1562C87.8229 15.1562 87.0286 14.9375 86.3359 14.5C85.6432 14.0573 85.1042 13.4297 84.7188 12.6172C84.3385 11.7995 84.1432 10.8542 84.1328 9.78125V8.96094C84.1328 7.86719 84.3229 6.90104 84.7031 6.0625C85.0833 5.22396 85.6198 4.58333 86.3125 4.14062C87.0104 3.69271 87.8073 3.46875 88.7031 3.46875C89.6198 3.46875 90.4245 3.6901 91.1172 4.13281C91.8151 4.57552 92.3516 5.21354 92.7266 6.04688C93.1016 6.875 93.2891 7.84375 93.2891 8.95312V9.67969ZM91.7891 8.94531C91.7891 7.60677 91.5208 6.57552 90.9844 5.85156C90.4531 5.1224 89.6927 4.75781 88.7031 4.75781C87.7604 4.75781 87.0156 5.11979 86.4688 5.84375C85.9271 6.5625 85.6484 7.5625 85.6328 8.84375V9.67969C85.6328 10.9818 85.9036 12.0078 86.4453 12.7578C86.9922 13.5078 87.75 13.8828 88.7188 13.8828C89.6875 13.8828 90.4375 13.5312 90.9688 12.8281C91.5 12.1198 91.7734 11.1068 91.7891 9.78906V8.94531ZM97.1094 13.7734H102.5V15H95.6016V3.625H97.1094V13.7734Z" fill="white"/>
<rect y="123" width="106" height="8" rx="4" fill="#151B24"/>
<rect y="123" width="40" height="8" rx="4" fill="#336791"/>
</svg>
