<svg width="106" height="131" viewBox="0 0 106 131" fill="none" xmlns="http://www.w3.org/2000/svg">
<path d="M30.0859 13.0078L33.3359 3.625H34.9766L30.7578 15H29.4297L25.2188 3.625H26.8516L30.0859 13.0078ZM44.5156 3.625V11.3594C44.5104 12.4323 44.1719 13.3099 43.5 13.9922C42.8333 14.6745 41.9271 15.0573 40.7812 15.1406L40.3828 15.1562C39.138 15.1562 38.1458 14.8203 37.4062 14.1484C36.6667 13.4766 36.2917 12.5521 36.2812 11.375V3.625H37.7656V11.3281C37.7656 12.151 37.9922 12.7917 38.4453 13.25C38.8984 13.7031 39.5443 13.9297 40.3828 13.9297C41.2318 13.9297 41.8802 13.7031 42.3281 13.25C42.7812 12.7969 43.0078 12.1589 43.0078 11.3359V3.625H44.5156ZM53.3125 9.74219H48.3828V13.7734H54.1094V15H46.8828V3.625H54.0312V4.85938H48.3828V8.51562H53.3125V9.74219ZM55.7812 14.2422C55.7812 13.9922 55.8542 13.7839 56 13.6172C56.151 13.4505 56.375 13.3672 56.6719 13.3672C56.9688 13.3672 57.1927 13.4505 57.3438 13.6172C57.5 13.7839 57.5781 13.9922 57.5781 14.2422C57.5781 14.4818 57.5 14.6823 57.3438 14.8438C57.1927 15.0052 56.9688 15.0859 56.6719 15.0859C56.375 15.0859 56.151 15.0052 56 14.8438C55.8542 14.6823 55.7812 14.4818 55.7812 14.2422ZM64.9609 3.625H66.4688V11.6797C66.4688 12.7682 66.1406 13.6198 65.4844 14.2344C64.8333 14.849 63.9635 15.1562 62.875 15.1562C61.7448 15.1562 60.8646 14.8672 60.2344 14.2891C59.6042 13.7109 59.2891 12.901 59.2891 11.8594H60.7891C60.7891 12.5104 60.9661 13.0182 61.3203 13.3828C61.6797 13.7474 62.1979 13.9297 62.875 13.9297C63.4948 13.9297 63.9948 13.7344 64.375 13.3438C64.7604 12.9531 64.9557 12.4062 64.9609 11.7031V3.625ZM72.375 9.92969C71.0885 9.5599 70.151 9.10677 69.5625 8.57031C68.9792 8.02865 68.6875 7.36198 68.6875 6.57031C68.6875 5.67448 69.0443 4.9349 69.7578 4.35156C70.4766 3.76302 71.4089 3.46875 72.5547 3.46875C73.3359 3.46875 74.0312 3.61979 74.6406 3.92188C75.2552 4.22396 75.7292 4.64062 76.0625 5.17188C76.401 5.70312 76.5703 6.28385 76.5703 6.91406H75.0625C75.0625 6.22656 74.8438 5.6875 74.4062 5.29688C73.9688 4.90104 73.3516 4.70312 72.5547 4.70312C71.8151 4.70312 71.237 4.86719 70.8203 5.19531C70.4089 5.51823 70.2031 5.96875 70.2031 6.54688C70.2031 7.01042 70.3984 7.40365 70.7891 7.72656C71.1849 8.04427 71.8542 8.33594 72.7969 8.60156C73.7448 8.86719 74.4844 9.16146 75.0156 9.48438C75.5521 9.80208 75.9479 10.1745 76.2031 10.6016C76.4635 11.0286 76.5938 11.5312 76.5938 12.1094C76.5938 13.0312 76.2344 13.7708 75.5156 14.3281C74.7969 14.8802 73.8359 15.1562 72.6328 15.1562C71.8516 15.1562 71.1224 15.0078 70.4453 14.7109C69.7682 14.4089 69.2448 13.9974 68.875 13.4766C68.5104 12.9557 68.3281 12.3646 68.3281 11.7031H69.8359C69.8359 12.3906 70.0885 12.9349 70.5938 13.3359C71.1042 13.7318 71.7839 13.9297 72.6328 13.9297C73.4245 13.9297 74.0312 13.7682 74.4531 13.4453C74.875 13.1224 75.0859 12.6823 75.0859 12.125C75.0859 11.5677 74.8906 11.138 74.5 10.8359C74.1094 10.5286 73.401 10.2266 72.375 9.92969Z" fill="white"/>
<g clip-path="url(#clip0)">
<path d="M72.6018 39H86.5023L51.7511 98.9457L17 39H43.5846L51.7511 52.9005L59.7439 39H72.6018Z" fill="#41B883"/>
<path d="M17 39L51.7511 98.9457L86.5023 39H72.6018L51.7511 74.9674L30.7267 39H17Z" fill="#41B883"/>
<path d="M30.7267 39L51.7511 75.1412L72.6018 39H59.7439L51.7511 52.9005L43.5846 39H30.7267Z" fill="#35495E"/>
</g>
<rect y="123" width="106" height="8" rx="4" fill="#151B24"/>
<rect y="123" width="50" height="8" rx="4" fill="#00D8FF"/>
<defs>
<clipPath id="clip0">
<rect width="69.5023" height="60" fill="white" transform="translate(17 39)"/>
</clipPath>
</defs>
</svg>
